<svg width="38" height="39" viewBox="0 0 38 39" fill="none" xmlns="http://www.w3.org/2000/svg">
<rect y="0.109375" width="37.5714" height="37.9362" rx="7.98968" fill="#651FFF"/>
<path d="M15.5637 14.7564H19.2649L14.2026 27.5078H11.0386L5.6181 14.7564H9.37904L12.5669 23.1857L15.5637 14.7564ZM27.3747 10.3866H30.7058V27.5078H27.6135L27.5061 26.0512C26.4395 27.2213 25.0425 27.8063 23.3153 27.8063C22.4557 27.8063 21.6398 27.6511 20.8677 27.3407C20.1036 27.0223 19.435 26.5805 18.8619 26.0154C18.2967 25.4502 17.847 24.7458 17.5127 23.9021C17.1784 23.0584 17.0112 22.135 17.0112 21.1321C17.0112 20.1212 17.1784 19.1939 17.5127 18.3502C17.847 17.4985 18.3007 16.7901 18.8738 16.225C19.4469 15.6599 20.1155 15.2221 20.8796 14.9116C21.6438 14.5933 22.4557 14.4341 23.3153 14.4341C24.9391 14.4341 26.2922 14.9077 27.3747 15.8549V10.3866ZM23.8168 24.8931C24.7878 24.8931 25.5997 24.5627 26.2524 23.9021C26.9051 23.2414 27.2315 22.3141 27.2315 21.1202C27.2315 19.9342 26.9051 19.0149 26.2524 18.3622C25.5997 17.7015 24.7839 17.3712 23.8048 17.3712C22.7939 17.3712 21.9542 17.7015 21.2856 18.3622C20.6249 19.0228 20.2946 19.9422 20.2946 21.1202C20.2946 22.3062 20.6289 23.2335 21.2975 23.9021C21.9661 24.5627 22.8059 24.8931 23.8168 24.8931Z" fill="#ECECEF"/>
</svg>
